<svg width="1015" height="209" viewBox="0 0 1015 209" fill="none" xmlns="http://www.w3.org/2000/svg">
<path d="M26.2162 81.1061C34.6536 40.7016 67.8005 0 125.054 0H191.649C185.02 11.8837 170.255 21.0935 145.846 21.9848C145.846 21.9848 132.286 22.2819 122.041 22.2819C82.566 22.2819 52.7337 54.6649 48.8164 84.077C39.1736 88.8305 28.3256 97.4462 20.4908 107.25L26.2162 81.1061ZM31.3389 168.748C27.1202 184.791 16.5735 197.863 0 205.588L10.2454 156.865C16.5735 128.641 40.379 86.1567 95.8247 86.1567H121.438C119.329 94.4752 110.892 105.765 95.2221 106.953C61.1711 108.736 35.8589 134.583 32.2429 163.103L31.3389 168.748Z" fill="black"/>
<path d="M183.597 208.355C169.978 208.355 158.924 206.409 150.434 202.518C142.121 198.627 136.019 192.879 132.128 185.273C128.413 177.668 126.556 168.471 126.556 157.681C126.556 152.375 126.822 147.335 127.352 142.559C127.883 137.784 128.502 133.096 129.209 128.498C131.509 113.818 135.577 101.614 141.413 91.8857C147.427 82.1578 155.386 74.9062 165.291 70.1307C175.373 65.1783 187.577 62.7021 201.903 62.7021C209.332 62.7021 216.141 63.4096 222.332 64.8246C228.699 66.0627 234.182 68.1851 238.781 71.1919C243.379 74.1987 247.005 78.2667 249.658 83.3959C252.488 88.5252 253.903 94.9809 253.903 102.763C253.903 112.314 252.134 120.185 248.597 126.375C245.059 132.566 240.195 137.341 234.005 140.702C227.991 144.062 221.094 146.45 213.311 147.865C205.529 149.103 197.481 149.722 189.168 149.722C181.386 149.722 174.311 149.369 167.944 148.661C161.754 147.777 156.978 146.892 153.618 146.008C153.264 148.307 152.998 150.695 152.822 153.171C152.822 155.647 152.822 158.035 152.822 160.334C152.822 170.062 155.917 177.137 162.107 181.559C168.475 185.981 178.91 188.192 193.413 188.192H237.189L234.801 204.11C228.787 205.171 221.182 206.144 211.985 207.028C202.964 207.913 193.502 208.355 183.597 208.355ZM180.944 133.804C191.026 133.804 199.604 133.008 206.679 131.416C213.753 129.648 219.148 126.729 222.862 122.661C226.753 118.416 228.699 112.668 228.699 105.416C228.699 97.634 226.311 92.0626 221.536 88.702C216.937 85.1646 209.774 83.3959 200.046 83.3959C190.495 83.3959 182.713 85.3415 176.699 89.2327C170.685 92.9469 165.998 98.4299 162.638 105.682C159.277 112.756 156.89 121.423 155.475 131.682C158.835 132.212 162.726 132.743 167.148 133.273C171.747 133.627 176.345 133.804 180.944 133.804ZM320.986 208.355C307.367 208.355 296.312 206.409 287.823 202.518C279.51 198.627 273.408 192.879 269.517 185.273C265.802 177.668 263.945 168.471 263.945 157.681C263.945 152.375 264.21 147.335 264.741 142.559C265.272 137.784 265.891 133.096 266.598 128.498C268.898 113.818 272.966 101.614 278.802 91.8857C284.816 82.1578 292.775 74.9062 302.68 70.1307C312.761 65.1783 324.965 62.7021 339.292 62.7021C346.72 62.7021 353.53 63.4096 359.72 64.8246C366.088 66.0627 371.571 68.1851 376.169 71.1919C380.768 74.1987 384.394 78.2667 387.047 83.3959C389.877 88.5252 391.292 94.9809 391.292 102.763C391.292 112.314 389.523 120.185 385.986 126.375C382.448 132.566 377.584 137.341 371.394 140.702C365.38 144.062 358.482 146.45 350.7 147.865C342.918 149.103 334.87 149.722 326.557 149.722C318.775 149.722 311.7 149.369 305.333 148.661C299.142 147.777 294.367 146.892 291.006 146.008C290.653 148.307 290.387 150.695 290.21 153.171C290.21 155.647 290.21 158.035 290.21 160.334C290.21 170.062 293.306 177.137 299.496 181.559C305.863 185.981 316.299 188.192 330.802 188.192H374.577L372.19 204.11C366.176 205.171 358.571 206.144 349.373 207.028C340.353 207.913 330.891 208.355 320.986 208.355ZM318.333 133.804C328.414 133.804 336.993 133.008 344.067 131.416C351.142 129.648 356.537 126.729 360.251 122.661C364.142 118.416 366.088 112.668 366.088 105.416C366.088 97.634 363.7 92.0626 358.924 88.702C354.326 85.1646 347.163 83.3959 337.435 83.3959C327.884 83.3959 320.101 85.3415 314.088 89.2327C308.074 92.9469 303.387 98.4299 300.027 105.682C296.666 112.756 294.278 121.423 292.863 131.682C296.224 132.212 300.115 132.743 304.537 133.273C309.136 133.627 313.734 133.804 318.333 133.804ZM441.926 208.355C429.368 208.355 419.375 204.287 411.946 196.151C404.694 187.838 401.069 175.988 401.069 160.6C401.069 150.695 402.041 140.879 403.987 131.151C406.64 117.178 410.266 105.151 414.865 95.0694C419.64 84.9878 426.715 77.2055 436.089 71.7225C445.64 66.0627 458.551 63.2327 474.824 63.2327C481.191 63.2327 487.116 63.7633 492.599 64.8246C498.082 65.7089 503.3 67.3007 508.252 69.6001L518.599 4.33495H545.395L513.293 206.763H490.211L488.885 191.906C485.17 194.736 480.749 197.389 475.619 199.865C470.667 202.341 465.273 204.375 459.436 205.967C453.776 207.559 447.939 208.355 441.926 208.355ZM452.538 186.6C460.143 186.6 467.13 185.45 473.497 183.151C479.864 180.675 485.878 177.845 491.538 174.661L504.803 91.6204C500.912 89.498 496.667 87.9061 492.068 86.8449C487.47 85.6068 482.075 84.9878 475.885 84.9878C466.511 84.9878 458.817 86.668 452.803 90.0286C446.79 93.2122 441.926 98.5183 438.211 105.947C434.674 113.375 431.844 123.369 429.722 135.926C429.014 139.641 428.484 143.178 428.13 146.539C427.776 149.722 427.599 152.818 427.599 155.824C427.599 163.43 428.749 169.532 431.048 174.13C433.347 178.552 436.354 181.736 440.069 183.681C443.783 185.627 447.939 186.6 452.538 186.6ZM581.3 206.763C569.627 206.763 560.695 204.11 554.504 198.804C548.314 193.498 545.219 186.334 545.219 177.314C545.219 173.777 545.395 170.416 545.749 167.232C546.103 163.872 546.545 160.777 547.076 157.947L571.484 4.33495H598.014L574.933 149.722C574.756 151.314 574.491 153.348 574.137 155.824C573.783 158.124 573.429 160.511 573.076 162.988C572.899 165.464 572.81 167.851 572.81 170.151C572.81 175.811 574.137 179.79 576.79 182.09C579.443 184.212 583.157 185.539 587.933 186.069L600.667 187.661L597.484 206.763H581.3ZM673.562 208.355C659.943 208.355 648.889 206.409 640.399 202.518C632.086 198.627 625.984 192.879 622.093 185.273C618.379 177.668 616.521 168.471 616.521 157.681C616.521 152.375 616.787 147.335 617.317 142.559C617.848 137.784 618.467 133.096 619.175 128.498C621.474 113.818 625.542 101.614 631.379 91.8857C637.392 82.1578 645.351 74.9062 655.256 70.1307C665.338 65.1783 677.542 62.7021 691.868 62.7021C699.297 62.7021 706.106 63.4096 712.297 64.8246C718.664 66.0627 724.147 68.1851 728.746 71.1919C733.344 74.1987 736.97 78.2667 739.623 83.3959C742.453 88.5252 743.868 94.9809 743.868 102.763C743.868 112.314 742.099 120.185 738.562 126.375C735.025 132.566 730.161 137.341 723.97 140.702C717.957 144.062 711.059 146.45 703.276 147.865C695.494 149.103 687.446 149.722 679.134 149.722C671.351 149.722 664.276 149.369 657.909 148.661C651.719 147.777 646.943 146.892 643.583 146.008C643.229 148.307 642.964 150.695 642.787 153.171C642.787 155.647 642.787 158.035 642.787 160.334C642.787 170.062 645.882 177.137 652.072 181.559C658.44 185.981 668.875 188.192 683.378 188.192H727.154L724.766 204.11C718.752 205.171 711.147 206.144 701.95 207.028C692.929 207.913 683.467 208.355 673.562 208.355ZM670.909 133.804C680.991 133.804 689.569 133.008 696.644 131.416C703.719 129.648 709.113 126.729 712.827 122.661C716.718 118.416 718.664 112.668 718.664 105.416C718.664 97.634 716.276 92.0626 711.501 88.702C706.902 85.1646 699.739 83.3959 690.011 83.3959C680.46 83.3959 672.678 85.3415 666.664 89.2327C660.651 92.9469 655.964 98.4299 652.603 105.682C649.242 112.756 646.855 121.423 645.44 131.682C648.8 132.212 652.691 132.743 657.113 133.273C661.712 133.627 666.31 133.804 670.909 133.804ZM748.869 206.763L771.155 64.8246H792.91L795.563 80.2123C802.638 75.2599 810.686 71.1919 819.706 68.0082C828.903 64.6477 838.631 62.9674 848.89 62.9674C857.379 62.9674 864.277 64.3824 869.583 67.2123C875.066 70.0422 879.046 73.9334 881.522 78.8858C883.998 83.8381 885.236 89.498 885.236 95.8653C885.236 98.3415 885.06 101.26 884.706 104.62C884.529 107.981 883.821 113.818 882.583 122.131L869.053 206.763H842.522L855.788 122.926C856.495 117.974 856.937 114.525 857.114 112.58C857.468 110.457 857.645 108.688 857.645 107.273C857.645 101.26 855.964 96.3959 852.604 92.6816C849.243 88.7905 843.318 86.8449 834.828 86.8449C826.516 86.8449 819.087 88.083 812.543 90.5592C806.175 93.0354 799.454 96.4843 792.38 100.906L775.4 206.763H748.869ZM949.726 208.355C944.951 208.355 939.91 208.266 934.604 208.089C929.298 207.913 923.992 207.559 918.686 207.028C913.38 206.675 908.516 206.232 904.094 205.702C899.672 204.994 896.046 204.375 893.216 203.845L895.604 187.926H955.563C962.815 187.926 968.651 186.688 973.073 184.212C977.672 181.736 980.413 177.579 981.298 171.743L982.89 162.988C983.066 162.103 983.155 161.484 983.155 161.13C983.155 160.6 983.155 160.069 983.155 159.539C983.155 151.226 977.76 147.069 966.971 147.069H942.298C934.516 147.069 927.794 146.185 922.135 144.416C916.475 142.647 912.141 139.906 909.135 136.192C906.128 132.301 904.624 127.437 904.624 121.6C904.624 119.831 904.713 117.974 904.89 116.029C905.067 114.083 905.332 112.049 905.686 109.926L907.543 99.049C908.781 91.9742 911.257 85.7837 914.971 80.4776C918.686 74.9946 924.169 70.7497 931.42 67.7429C938.849 64.7361 948.577 63.2327 960.604 63.2327C965.733 63.2327 971.57 63.498 978.114 64.0286C984.835 64.3824 991.379 64.913 997.747 65.6205C1004.29 66.328 1009.77 67.1239 1014.2 68.0082L1011.28 83.9266H955.563C947.781 83.9266 942.033 85.3415 938.318 88.1714C934.781 90.8245 932.482 94.9809 931.42 100.641L930.094 107.804C929.74 109.573 929.475 111.076 929.298 112.314C929.298 113.375 929.298 114.437 929.298 115.498C929.298 118.858 930.624 121.335 933.277 122.926C936.107 124.341 940.794 125.049 947.339 125.049H973.339C983.774 125.049 992.175 127.437 998.543 132.212C1004.91 136.988 1008.09 143.797 1008.09 152.641C1008.09 154.056 1008.01 155.559 1007.83 157.151C1007.83 158.743 1007.74 160.334 1007.56 161.926L1005.44 174.661C1003.49 187.042 997.57 195.797 987.665 200.926C977.937 205.879 965.291 208.355 949.726 208.355Z" fill="black"/>
</svg>
